<svg width="25" height="25" viewBox="0 0 25 25" fill="none" xmlns="http://www.w3.org/2000/svg">
<path d="M12.5 0.390625C5.80767 0.390625 0.390625 5.80659 0.390625 12.5C0.390625 19.1923 5.80659 24.6094 12.5 24.6094C14.8513 24.6094 17.1554 23.9189 19.1117 22.6454C19.6979 22.2638 19.8258 21.4594 19.3828 20.9182L18.8859 20.3111C18.5113 19.8536 17.8518 19.7415 17.354 20.0607C15.9141 20.9842 14.2243 21.4844 12.5 21.4844C7.546 21.4844 3.51562 17.454 3.51562 12.5C3.51562 7.546 7.546 3.51562 12.5 3.51562C17.3896 3.51562 21.4844 6.32905 21.4844 11.3281C21.4844 13.222 20.4544 15.2218 18.644 15.4147C17.7969 15.3925 17.8184 14.7869 17.986 13.9487L19.1302 8.03511C19.2702 7.31201 18.7162 6.64062 17.9797 6.64062H15.7834C15.6212 6.64062 15.4647 6.70032 15.3438 6.80832C15.2228 6.91633 15.1458 7.06509 15.1275 7.22622L15.1271 7.23071C14.4094 6.35664 13.1521 6.16748 12.1988 6.16748C8.55718 6.16748 5.46875 9.20625 5.46875 13.563C5.46875 16.7516 7.26489 18.7324 10.1562 18.7324C11.4738 18.7324 12.9575 17.9689 13.8179 16.8607C14.2829 18.5259 15.801 18.5259 17.2706 18.5259C22.5883 18.5259 24.6094 15.0292 24.6094 11.3281C24.6094 4.67056 19.2394 0.390625 12.5 0.390625ZM11.4414 15.2554C10.355 15.2554 9.68018 14.4925 9.68018 13.2646C9.68018 11.0677 11.1831 9.71338 12.543 9.71338C13.6314 9.71338 14.2813 10.4576 14.2813 11.7041C14.2813 13.9043 12.6272 15.2554 11.4414 15.2554Z" fill="black"/>
</svg>
